HIERARCHY
ROOT Hips
{
  OFFSET 5.84602e-005 68.8428 3.50346
  CHANNELS 6 Xposition Yposition Zposition Zrotation Xrotation Yrotation
  JOINT Spine
  {
    OFFSET 0 8.597 -4.6522
    CHANNELS 3 Zrotation Xrotation Yrotation
    JOINT Spine1
    {
      OFFSET 0 7.8454 0.4098
      CHANNELS 3 Zrotation Xrotation Yrotation
      JOINT Spine2
      {
        OFFSET 0 9.7078 -2.1609
        CHANNELS 3 Zrotation Xrotation Yrotation
        JOINT Neck
        {
          OFFSET 0 21.8761 -0.4549
          CHANNELS 3 Zrotation Xrotation Yrotation
          JOINT Head
          {
            OFFSET 0 12.3537 3.3602
            CHANNELS 3 Zrotation Xrotation Yrotation
            End Site
            {
              OFFSET 0.0001 18.9506 0.5657
            }
          }
        }
        JOINT LeftShoulder
        {
          OFFSET 2.2086 21.1115 7.2329
          CHANNELS 3 Zrotation Xrotation Yrotation
          JOINT LeftArm
          {
            OFFSET 13.1193 3.0282 -4.8998
            CHANNELS 3 Zrotation Xrotation Yrotation
            JOINT LeftForeArm
            {
              OFFSET 27.4081 -0.0973053 -0.2375
              CHANNELS 3 Zrotation Xrotation Yrotation
              JOINT LeftHand
              {
                OFFSET 22.8641 0.0662994 -0.1369
                CHANNELS 3 Zrotation Xrotation Yrotation
                JOINT LeftHandIndex1
                {
                  OFFSET 8.8614 0.775009 2.4612
                  CHANNELS 3 Zrotation Xrotation Yrotation
                  JOINT LeftHandIndex2
                  {
                    OFFSET 3.3146 -0.808304 0.5841
                    CHANNELS 3 Zrotation Xrotation Yrotation
                    JOINT LeftHandIndex3
                    {
                      OFFSET 2.2628 -0.552002 0.3989
                      CHANNELS 3 Zrotation Xrotation Yrotation
                      End Site
                      {
                        OFFSET 1.6102 -0.4807 0.2612
                      }
                    }
                  }
                }
                JOINT LeftHandMiddle1
                {
                  OFFSET 8.9937 0.895004 0.2143
                  CHANNELS 3 Zrotation Xrotation Yrotation
                  JOINT LeftHandMiddle2
                  {
                    OFFSET 4.0984 0.0113983 -0.0242
                    CHANNELS 3 Zrotation Xrotation Yrotation
                    JOINT LeftHandMiddle3
                    {
                      OFFSET 2.2716 0.00689697 -0.0138001
                      CHANNELS 3 Zrotation Xrotation Yrotation
                      End Site
                      {
                        OFFSET 2.0404 -0.1441 0.0027
                      }
                    }
                  }
                }
                JOINT LeftHandRing1
                {
                  OFFSET 8.5234 0.597198 -2.0164
                  CHANNELS 3 Zrotation Xrotation Yrotation
                  JOINT LeftHandRing2
                  {
                    OFFSET 3.7188 -0.188293 -0.2328
                    CHANNELS 3 Zrotation Xrotation Yrotation
                    JOINT LeftHandRing3
                    {
                      OFFSET 2.1191 -0.106598 -0.1332
                      CHANNELS 3 Zrotation Xrotation Yrotation
                      End Site
                      {
                        OFFSET 1.8737 -0.2304 -0.0886
                      }
                    }
                  }
                }
                JOINT LeftHandPinky1
                {
                  OFFSET 7.9094 -0.601089 -3.4825
                  CHANNELS 3 Zrotation Xrotation Yrotation
                  JOINT LeftHandPinky2
                  {
                    OFFSET 2.2874 -0.477005 -0.6314
                    CHANNELS 3 Zrotation Xrotation Yrotation
                    JOINT LeftHandPinky3
                    {
                      OFFSET 1.6774 -0.349396 -0.4633
                      CHANNELS 3 Zrotation Xrotation Yrotation
                      End Site
                      {
                        OFFSET 1.4888 -0.4091 -0.3416
                      }
                    }
                  }
                }
                JOINT LeftHandThumb1
                {
                  OFFSET 1.833 -1.3875 1.3896
                  CHANNELS 3 Zrotation Xrotation Yrotation
                  JOINT LeftHandThumb2
                  {
                    OFFSET 3.4129 -1.121 2.5732
                    CHANNELS 3 Zrotation Xrotation Yrotation
                    JOINT LeftHandThumb3
                    {
                      OFFSET 2.2474 -0.804199 1.6192
                      CHANNELS 3 Zrotation Xrotation Yrotation
                      End Site
                      {
                        OFFSET 1.6527 -0.5689 1.1317
                      }
                    }
                  }
                }
              }
            }
          }
        }
        JOINT RightShoulder
        {
          OFFSET -2.2086 21.1115 7.2329
          CHANNELS 3 Zrotation Xrotation Yrotation
          JOINT RightArm
          {
            OFFSET -13.1216 3.0287 -4.9007
            CHANNELS 3 Zrotation Xrotation Yrotation
            JOINT RightForeArm
            {
              OFFSET -27.4081 -0.0973053 -0.2375
              CHANNELS 3 Zrotation Xrotation Yrotation
              JOINT RightHand
              {
                OFFSET -22.8641 0.0664063 -0.1369
                CHANNELS 3 Zrotation Xrotation Yrotation
                JOINT RightHandIndex1
                {
                  OFFSET -8.8614 0.774994 2.4612
                  CHANNELS 3 Zrotation Xrotation Yrotation
                  JOINT RightHandIndex2
                  {
                    OFFSET -3.3146 -0.808304 0.5841
                    CHANNELS 3 Zrotation Xrotation Yrotation
                    JOINT RightHandIndex3
                    {
                      OFFSET -2.2628 -0.552002 0.3989
                      CHANNELS 3 Zrotation Xrotation Yrotation
                      End Site
                      {
                        OFFSET -1.6102 -0.4807 0.2612
                      }
                    }
                  }
                }
                JOINT RightHandMiddle1
                {
                  OFFSET -8.9937 0.894989 0.2143
                  CHANNELS 3 Zrotation Xrotation Yrotation
                  JOINT RightHandMiddle2
                  {
                    OFFSET -4.0984 0.0113983 -0.0242
                    CHANNELS 3 Zrotation Xrotation Yrotation
                    JOINT RightHandMiddle3
                    {
                      OFFSET -2.2716 0.00691223 -0.0138001
                      CHANNELS 3 Zrotation Xrotation Yrotation
                      End Site
                      {
                        OFFSET -2.0404 -0.1441 0.0027
                      }
                    }
                  }
                }
                JOINT RightHandRing1
                {
                  OFFSET -8.5234 0.597198 -2.0164
                  CHANNELS 3 Zrotation Xrotation Yrotation
                  JOINT RightHandRing2
                  {
                    OFFSET -3.7188 -0.188309 -0.2328
                    CHANNELS 3 Zrotation Xrotation Yrotation
                    JOINT RightHandRing3
                    {
                      OFFSET -2.1191 -0.106598 -0.1332
                      CHANNELS 3 Zrotation Xrotation Yrotation
                      End Site
                      {
                        OFFSET -1.8737 -0.2304 -0.0886
                      }
                    }
                  }
                }
                JOINT RightHandPinky1
                {
                  OFFSET -7.9094 -0.601105 -3.4825
                  CHANNELS 3 Zrotation Xrotation Yrotation
                  JOINT RightHandPinky2
                  {
                    OFFSET -2.2874 -0.477005 -0.6314
                    CHANNELS 3 Zrotation Xrotation Yrotation
                    JOINT RightHandPinky3
                    {
                      OFFSET -1.6774 -0.349396 -0.4633
                      CHANNELS 3 Zrotation Xrotation Yrotation
                      End Site
                      {
                        OFFSET -1.4888 -0.4091 -0.3416
                      }
                    }
                  }
                }
                JOINT RightHandThumb1
                {
                  OFFSET -1.833 -1.38751 1.3896
                  CHANNELS 3 Zrotation Xrotation Yrotation
                  JOINT RightHandThumb2
                  {
                    OFFSET -3.41299 -1.12099 2.5732
                    CHANNELS 3 Zrotation Xrotation Yrotation
                    JOINT RightHandThumb3
                    {
                      OFFSET -2.24741 -0.804108 1.6192
                      CHANNELS 3 Zrotation Xrotation Yrotation
                      End Site
                      {
                        OFFSET -1.6527 -0.5689 1.1317
                      }
                    }
                  }
                }
              }
            }
          }
        }
      }
    }
  }
  JOINT RightUpLeg
  {
    OFFSET -9.1966 3.8861 -0.7581
    CHANNELS 3 Zrotation Xrotation Yrotation
    JOINT RightLeg
    {
      OFFSET -0.7359 -41.0265 0
      CHANNELS 3 Zrotation Xrotation Yrotation
      JOINT RightFoot
      {
        OFFSET 0 -40.2855 0
        CHANNELS 3 Zrotation Xrotation Yrotation
        JOINT RightToeBase
        {
          OFFSET 0 -5.6122 11.7359
          CHANNELS 3 Zrotation Xrotation Yrotation
          End Site
          {
            OFFSET 0 0 7.8731
          }
        }
      }
    }
  }
  JOINT LeftUpLeg
  {
    OFFSET 9.1965 3.8864 -0.7581
    CHANNELS 3 Zrotation Xrotation Yrotation
    JOINT LeftLeg
    {
      OFFSET 0.7359 -41.0268 0
      CHANNELS 3 Zrotation Xrotation Yrotation
      JOINT LeftFoot
      {
        OFFSET 0 -40.2855 0
        CHANNELS 3 Zrotation Xrotation Yrotation
        JOINT LeftToeBase
        {
          OFFSET 0 -5.6122 11.7359
          CHANNELS 3 Zrotation Xrotation Yrotation
          End Site
          {
            OFFSET 0 0 7.8731
          }
        }
      }
    }
  }
}
MOTION
Frames:	4
Frame Time:	0.0333333
5.84602e-005 68.8428 3.50346 0 0 -0 0 0 -0 0 0 -0 0 0 -0 0 0 -0 0 0 -0 0 0 -0 0 0 -0 0 0 -0 0 0 -0 0 0 -0 0 0 -0 0 0 -0 0 0 -0 -0.0146107 -8.87603e-005 -2.63497e-007 2.99804e-018 -2.42657e-020 -1.42182e-022 0 0 -0 -0.0187562 -0.001176 5.858e-005 5.06224e-018 3.88251e-019 1.21329e-020 0 0 -0 -0.012269 -0.00324817 0.000675346 -1.74678e-018 3.88251e-019 -0 0 0 -0 0 0 -0 0 0 -0 0 0 -0 0 0 -0 0 0 -0 0 0 -0 0 0 -0 0 0 -0 0 0 -0 0 0 -0 0.0149955 -9.10982e-005 2.64101e-007 -9.69331e-018 1.21329e-020 -4.7394e-023 0 0 -0 0.0189956 -0.00119102 -5.96516e-005 -5.41541e-019 0 2.42657e-020 0 0 -0 0.0122698 -0.00324857 -0.000673756 -2.00796e-019 0 -1.94126e-019 0 0 -0 0 0 -0 0 0 -0 3.39842 1.33031 -0.0637918 -5.65207e-008 0.834868 -0.000436188 -3.39935 -2.16518 -0.0642563 -8.89002e-024 -1.18485e-023 -1.48106e-024 -3.39844 1.35642 0.0640283 -3.18788e-007 0.782166 -0.000588827 3.39931 -2.13858 0.0634662 1.1399e-023 0 -0 
-0.0985074 19.0087 7.19645 -0 -66.6681 -0 -0.0466682 6.34474 -0.0808736 -0.0850506 12.6897 -0.157978 -0.0850506 12.6897 -0.157978 9.82751e-007 13.3324 -3.36908e-007 -5.53463e-009 6.711 1.07771e-009 0.459893 0.322345 6.37558 -57.0667 0.500816 22.4381 21.2135 13.9352 -58.2053 -5.23364 17.4809 0.154857 1.28003e-030 1.15295e-014 -6.36111e-015 6.99688e-007 2.85609e-006 6.73515e-007 -3.91299e-007 7.23557e-007 2.18677e-007 1.28003e-030 1.15295e-014 -6.36111e-015 -0.0146099 -8.87134e-005 -2.20387e-007 -8.54943e-007 1.94394e-007 -3.02074e-007 1.28003e-030 1.15295e-014 -6.36111e-015 -0.0187788 -0.0011753 5.88258e-005 -3.91307e-007 7.23521e-007 2.188e-007 1.28003e-030 1.15295e-014 -6.36111e-015 -0.0122776 -0.0032468 0.000682513 -3.91295e-007 7.23534e-007 2.18766e-007 1.28003e-030 1.15295e-014 -6.36111e-015 6.99688e-007 2.85609e-006 6.73515e-007 -3.91299e-007 7.23557e-007 2.18677e-007 -0.462479 0.322545 -6.37817 57.0537 0.502726 -22.4401 -21.2158 13.9317 58.1988 5.23121 17.4807 -0.156965 7.70411e-007 1.45227e-006 -4.40147e-007 3.85206e-007 7.26137e-007 -2.20073e-007 3.85206e-007 7.26137e-007 -2.20073e-007 7.70411e-007 1.45227e-006 -4.40147e-007 0.0150097 -9.22732e-005 1.09082e-006 3.85215e-007 7.26108e-007 -2.20169e-007 7.70411e-007 1.45227e-006 -4.40147e-007 0.0189978 -0.00118969 -5.8866e-005 3.85215e-007 7.261e-007 -2.20198e-007 7.70411e-007 1.45227e-006 -4.40147e-007 0.0122893 -0.0032524 -0.000670453 -5.43859e-007 1.40154e-006 -3.10962e-006 7.70411e-007 1.45227e-006 -4.40147e-007 3.85206e-007 7.26137e-007 -2.20073e-007 3.85206e-007 7.26137e-007 -2.20073e-007 -21.0039 -35.0995 -28.4986 170.116 81.496 -173.778 -6.898 9.81771 -1.70156 1.75497e-006 -5.41913e-007 3.56728e-006 11.236 2.32592 0.813795 -1.47605 5.49622 0.669544 7.66255 9.27198 0.479848 -3.18055e-015 -3.18055e-015 -3.18055e-015 
-0.205442 -3.13376 5.86082 -180 -83.3313 -180 -0.0671157 9.17616 -0.115845 -0.117459 18.3525 -0.22506 -0.117459 18.3525 -0.22506 2.31534e-006 19.3321 -1.75419e-006 8.9886e-008 9.50626 -4.1477e-008 0.643514 0.464221 9.24476 -82.8694 0.662359 32.5363 36.079 5.64104 -82.3086 -7.62276 25.3471 0.236996 -2.38542e-015 3.77691e-015 -3.97569e-016 5.30829e-007 2.28842e-006 1.72143e-007 -7.95139e-016 1.59525e-014 3.97569e-016 -2.38542e-015 3.77691e-015 -3.97569e-016 -0.0146288 -8.96268e-005 3.06395e-006 1.59028e-015 -4.62174e-015 3.97569e-016 -2.38542e-015 3.77691e-015 -3.97569e-016 -0.0187508 -0.00117769 5.78567e-005 3.18055e-015 5.66536e-015 -7.95139e-016 -2.38542e-015 3.77691e-015 -3.97569e-016 -0.0122682 -0.00324398 0.000678702 6.82375e-007 -1.16346e-006 -5.14955e-007 -2.38542e-015 3.77691e-015 -3.97569e-016 5.30829e-007 2.28842e-006 1.72143e-007 -7.95139e-016 1.59525e-014 3.97569e-016 -0.647239 0.464514 -9.2485 82.851 0.664883 -32.5393 -36.0821 5.63668 82.3119 7.61971 25.3469 -0.240243 -1.59028e-015 -3.77691e-015 -7.95139e-016 -1.59028e-015 -3.97569e-015 7.95139e-016 -1.59028e-015 -3.97569e-015 -0 -1.59028e-015 -3.77691e-015 -7.95139e-016 0.0150033 -9.11142e-005 3.47153e-006 6.26765e-007 1.09587e-006 -6.06387e-007 -1.59028e-015 -3.77691e-015 -7.95139e-016 0.0189846 -0.00119209 -6.40228e-005 7.95139e-016 2.13694e-015 -1.59028e-015 -1.59028e-015 -3.77691e-015 -7.95139e-016 0.012307 -0.00325917 -0.000684641 6.26499e-007 1.0956e-006 -6.0644e-007 -1.59028e-015 -3.77691e-015 -7.95139e-016 -1.59028e-015 -3.97569e-015 7.95139e-016 -1.59028e-015 -3.97569e-015 -0 -44.0262 -45.019 -52.4001 177.033 38.5249 176.147 -7.24652 14.6329 -4.27092 -4.22417e-015 1.78906e-015 -0 17.8195 3.16688 1.139 -2.14404 7.14396 0.904729 9.53014 14.4648 0.64255 2.02147e-006 -5.05128e-007 -1.46724e-006 
-0.177077 1.85676 6.3112 -180 -89.9981 -180 -0.0617667 8.49446 -0.10659 -0.10918 16.989 -0.20728 -0.10918 16.989 -0.20728 4.62936e-007 17.999 -8.13499e-007 5.35811e-008 8.38567 -1.11627e-007 0.603948 0.43297 8.60715 -77.1298 0.631612 30.2922 32.824 8.41876 -77.1444 -7.08972 23.5991 0.217604 3.97569e-016 5.01931e-015 -1.59028e-015 -2.32808e-006 2.06834e-007 6.06866e-007 1.39149e-015 4.96962e-016 -1.59028e-015 3.97569e-016 5.01931e-015 -1.59028e-015 -0.0146144 -8.82307e-005 -8.45826e-006 3.37934e-015 7.05686e-015 1.43125e-014 3.97569e-016 5.01931e-015 -1.59028e-015 -0.0187384 -0.00117533 6.00302e-005 2.02764e-031 -2.43511e-015 4.77083e-015 3.97569e-016 5.01931e-015 -1.59028e-015 -0.0122697 -0.00324765 0.000674887 1.59028e-015 3.52843e-015 -0 3.97569e-016 5.01931e-015 -1.59028e-015 -2.32808e-006 2.06834e-007 6.06866e-007 1.39149e-015 4.96962e-016 -1.59028e-015 -0.60742 0.433252 -8.61064 77.1126 0.634032 -30.2949 -32.8292 8.40309 77.17 7.08676 23.5989 -0.220575 2.32212e-006 2.27808e-007 -6.22146e-007 2.32212e-006 2.27808e-007 -6.22146e-007 2.32212e-006 2.27808e-007 -6.22146e-007 2.32212e-006 2.27808e-007 -6.22146e-007 0.0150009 -8.92883e-005 -5.90934e-008 2.1579e-006 6.11319e-008 -1.54896e-006 2.32212e-006 2.27808e-007 -6.22146e-007 0.0189956 -0.00119052 -6.408e-005 2.32211e-006 2.27706e-007 -6.22208e-007 2.32212e-006 2.27808e-007 -6.22146e-007 0.0122807 -0.0032499 -0.000671552 2.3221e-006 2.27756e-007 -6.22236e-007 2.32212e-006 2.27808e-007 -6.22146e-007 2.32212e-006 2.27808e-007 -6.22146e-007 2.32212e-006 2.27808e-007 -6.22146e-007 -38.3643 -43.3599 -45.9055 176.664 48.0649 177.635 -7.39682 13.7 -3.32711 1.72029e-006 -4.48762e-007 -6.64765e-007 16.3501 3.04256 1.06756 -1.99525 6.62708 0.848349 9.12586 13.3993 0.59927 -2.17933e-006 -1.07009e-006 3.68712e-006 
